<?xml version="1.0" encoding="utf-8"?>
<!-- Generator: Adobe Illustrator 22.0.0, SVG Export Plug-In . SVG Version: 6.00 Build 0)  -->
<svg version="1.1" id="Lager_1" xmlns="http://www.w3.org/2000/svg" xmlns:xlink="http://www.w3.org/1999/xlink" x="0px" y="0px"
	 viewBox="0 0 24 24" style="enable-background:new 0 0 24 24;" xml:space="preserve">
<style type="text/css">
	.st0{fill:transparent;}
	.st1{fill:#FFFFFF;}
	.st2{fill:none;}
</style>
<circle class="st0" cx="12" cy="12" r="12"/>
<path class="st1" d="M12,5.9c1.2,0,2.1,0.9,2.1,2.1s-0.9,2.1-2.1,2.1S9.9,9.2,9.9,8S10.8,5.9,12,5.9 M12,14.9c3,0,6.1,1.5,6.1,2.1
	v1.1H5.9V17C5.9,16.4,9,14.9,12,14.9 M12,4C9.8,4,8,5.8,8,8s1.8,4,4,4s4-1.8,4-4S14.2,4,12,4z M12,13c-2.7,0-8,1.3-8,4v3h16v-3
	C20,14.3,14.7,13,12,13z"/>
<path class="st2" d="M0,0h24v24H0V0z"/>
</svg>
